<svg width="758" height="715" viewBox="0 0 758 715" fill="none" xmlns="http://www.w3.org/2000/svg">
<path d="M644.944 21.9268C670.465 0.109654 707.808 1.59422 731.646 25.3594L732.204 25.9209C755.639 49.8257 758.03 87.7805 737.74 114.601L499.751 429.521L499.746 429.529L499.739 429.537C496.438 433.874 491.471 436.247 486.371 436.247C482.614 436.247 478.856 434.972 475.737 432.355V432.356C468.508 426.352 467.35 415.499 473.019 408.029L711.001 93.1172L711.002 93.1152L711.453 92.5059C720.735 79.6188 719.313 61.6568 708.089 50.4717L707.547 49.9443C696.064 39.0352 678.639 38.5274 666.573 48.8154L369.05 302.78L369.051 302.781C361.664 309.156 350.843 307.797 344.981 300.276C339.208 292.87 340.245 282.015 347.394 275.916H347.395L644.944 21.9268Z" fill="#6B7280" stroke="#6B7280" stroke-width="13"/>
<path d="M163.96 383.523C194.004 344.796 242.148 317.85 322.521 323.037L322.521 323.036C332.582 323.668 342.055 328.159 349.229 335.524H349.23L445.872 434.133H445.873C455.033 443.459 459.568 456.387 458.349 469.512L458.348 469.514C454.34 512.493 434.827 620.244 338.923 674.922L338.919 674.924C300.596 696.742 254.982 708.215 207.05 708.215C128.913 708.215 54.7602 678.323 13.8428 629.241L13.8389 629.236C6.79161 620.766 4.66913 609.407 8.12695 598.935L8.12988 598.927L8.13184 598.921C11.5945 588.517 19.9624 580.854 30.6514 578.759L30.6592 578.758L31.9492 578.501C59.2883 572.95 102.379 556.949 113.132 511.842L114.044 507.926L114.048 507.911L114.051 507.897C122.92 470.6 134.367 421.669 163.96 383.523ZM302.881 357.277C243.196 357.277 209.01 379.113 187.341 409.143C165.25 439.758 155.736 479.397 146.998 516.168L146.997 516.172L146.057 520.12C131.451 581.435 77.983 603.564 44.0342 611.514C78.6216 648.824 141.545 673.281 207.05 673.281C249.461 673.281 289.37 663.21 322.494 644.346C403.66 598.074 420.977 504.923 424.582 466.16C424.823 463.507 423.887 460.869 421.997 458.937V458.936L325.354 360.305L325.348 360.3C323.862 358.779 321.984 357.961 320.392 357.855C314.314 357.469 308.498 357.277 302.881 357.277ZM36.9814 613.031L36.9824 613.032C36.9454 613.039 36.9691 613.036 37.0391 613.019C37.0198 613.023 37.0007 613.027 36.9814 613.031Z" fill="#6B7280" stroke="#6B7280" stroke-width="13"/>
</svg>
