<svg width="26" height="20" viewBox="0 0 26 20" fill="none" xmlns="http://www.w3.org/2000/svg">
<g clip-path="url(#clip0_2_68)">
<path d="M15.2188 1.25H20.2188C20.9102 1.25 21.4688 1.80859 21.4688 2.5C21.4688 3.19141 20.9102 3.75 20.2188 3.75H15.7813C15.5782 4.75781 14.8867 5.58984 13.9688 5.98828V17.5H20.2188C20.9102 17.5 21.4688 18.0586 21.4688 18.75C21.4688 19.4414 20.9102 20 20.2188 20H12.7188H5.21878C4.52737 20 3.96878 19.4414 3.96878 18.75C3.96878 18.0586 4.52737 17.5 5.21878 17.5H11.4688V5.98828C10.5508 5.58594 9.8594 4.75391 9.65628 3.75H5.21878C4.52737 3.75 3.96878 3.19141 3.96878 2.5C3.96878 1.80859 4.52737 1.25 5.21878 1.25H10.2188C10.7891 0.492188 11.6953 0 12.7188 0C13.7422 0 14.6485 0.492188 15.2188 1.25ZM17.3907 12.5H23.0469L20.2188 7.64844L17.3907 12.5ZM20.2188 16.25C17.7617 16.25 15.7188 14.9219 15.2969 13.168C15.1953 12.7383 15.336 12.2969 15.5586 11.9141L19.2774 5.53906C19.4727 5.20312 19.8321 5 20.2188 5C20.6055 5 20.9649 5.20703 21.1602 5.53906L24.8789 11.9141C25.1016 12.2969 25.2422 12.7383 25.1407 13.168C24.7188 14.9219 22.6758 16.25 20.2188 16.25ZM5.1719 7.64844L2.34378 12.5H8.00394L5.1719 7.64844ZM0.253935 13.168C0.152373 12.7383 0.292998 12.2969 0.515654 11.9141L4.2344 5.53906C4.42972 5.20312 4.78909 5 5.17581 5C5.56253 5 5.9219 5.20703 6.11722 5.53906L9.83597 11.9141C10.0586 12.2969 10.1992 12.7383 10.0977 13.168C9.6719 14.9219 7.62894 16.25 5.1719 16.25C2.71487 16.25 0.67581 14.9219 0.253935 13.168Z" fill="#6B7280"/>
</g>
<defs>
<clipPath id="clip0_2_68">
<rect width="25" height="20" fill="white" transform="translate(0.21875)"/>
</clipPath>
</defs>
</svg>
