<svg width="28" height="32" viewBox="0 0 28 32" fill="none" xmlns="http://www.w3.org/2000/svg">
<g clip-path="url(#clip0_2_175)">
<g clip-path="url(#clip1_2_175)">
<path d="M14.9844 9C11.125 9 8 12.1344 8 16C8 19.8656 11.125 23 14.9844 23C16.8781 23 18.5938 22.2438 19.8531 21.0188C20.0094 20.8656 20.05 20.6281 19.95 20.4344C19.85 20.2406 19.6344 20.1312 19.4187 20.1687C19.1125 20.2219 18.8 20.25 18.4781 20.25C15.45 20.25 12.9938 17.7875 12.9938 14.75C12.9938 12.6937 14.1188 10.9031 15.7844 9.95938C15.975 9.85 16.0719 9.63125 16.025 9.41875C15.9781 9.20625 15.7969 9.04688 15.5781 9.02813C15.3812 9.0125 15.1844 9.00312 14.9844 9.00312V9Z" fill="black"/>
</g>
</g>
<defs>
<clipPath id="clip0_2_175">
<rect width="12" height="16" fill="white" transform="translate(8 8)"/>
</clipPath>
<clipPath id="clip1_2_175">
<path d="M8 8H20V24H8V8Z" fill="white"/>
</clipPath>
</defs>
</svg>
