<svg width="31" height="25" viewBox="0 0 31 25" fill="none" xmlns="http://www.w3.org/2000/svg">
<g clip-path="url(#clip0_2_926)">
<path d="M15.9844 2.15625C15.6047 2.15625 15.2297 2.22187 14.8734 2.34844L1.72499 7.09687C1.27968 7.26094 0.984364 7.68281 0.984364 8.15625C0.984364 8.62969 1.27968 9.05156 1.72499 9.21563L4.43905 10.1953C3.6703 11.4047 3.23436 12.8344 3.23436 14.3391V15.6562C3.23436 16.9875 2.72811 18.3609 2.18905 19.4437C1.88436 20.0531 1.53749 20.6531 1.13436 21.2062C0.984364 21.4078 0.942177 21.6703 1.02655 21.9094C1.11093 22.1484 1.3078 22.3266 1.55155 22.3875L4.55155 23.1375C4.74843 23.1891 4.95936 23.1516 5.1328 23.0438C5.30624 22.9359 5.42811 22.7578 5.46561 22.5563C5.86874 20.55 5.66718 18.75 5.36718 17.4609C5.21718 16.7953 5.01561 16.1156 4.73436 15.4922V14.3391C4.73436 12.9234 5.21249 11.5875 6.04218 10.5187C6.64686 9.79219 7.42968 9.20625 8.34843 8.84531L15.7078 5.95312C16.0922 5.80312 16.5281 5.99062 16.6781 6.375C16.8281 6.75938 16.6406 7.19531 16.2562 7.34531L8.89686 10.2375C8.31561 10.4672 7.80468 10.8188 7.38749 11.25L14.8687 13.95C15.225 14.0766 15.6 14.1422 15.9797 14.1422C16.3594 14.1422 16.7344 14.0766 17.0906 13.95L30.2437 9.21563C30.6891 9.05625 30.9844 8.62969 30.9844 8.15625C30.9844 7.68281 30.6891 7.26094 30.2437 7.09687L17.0953 2.34844C16.7391 2.22187 16.3641 2.15625 15.9844 2.15625ZM6.98436 19.7812C6.98436 21.4359 11.0156 23.1562 15.9844 23.1562C20.9531 23.1562 24.9844 21.4359 24.9844 19.7812L24.2672 12.9656L17.6016 15.375C17.0812 15.5625 16.5328 15.6562 15.9844 15.6562C15.4359 15.6562 14.8828 15.5625 14.3672 15.375L7.70155 12.9656L6.98436 19.7812Z" fill="#2563EB"/>
</g>
<defs>
<clipPath id="clip0_2_926">
<rect width="30" height="24" fill="white" transform="translate(0.984375 0.65625)"/>
</clipPath>
</defs>
</svg>
