<svg width="16" height="20" viewBox="0 0 16 20" fill="none" xmlns="http://www.w3.org/2000/svg">
<g clip-path="url(#clip0_85_40)">
<path d="M0.09375 1.875C0.09375 0.839844 0.933594 0 1.96875 0V1.875V17.2422L7.05078 13.6133C7.375 13.3789 7.81641 13.3789 8.14062 13.6133L13.2188 17.2422V1.875H1.96875V0H13.2188C14.2539 0 15.0938 0.839844 15.0938 1.875V19.0625C15.0938 19.4141 14.8984 19.7344 14.5859 19.8945C14.2734 20.0547 13.8984 20.0273 13.6133 19.8242L7.59375 15.5273L1.57422 19.8242C1.28906 20.0273 0.914062 20.0547 0.601562 19.8945C0.289062 19.7344 0.09375 19.4141 0.09375 19.0625V1.875Z" fill="#2ECC71"/>
</g>
<defs>
<clipPath id="clip0_85_40">
<rect width="15" height="20" fill="white" transform="translate(0.09375)"/>
</clipPath>
</defs>
</svg>
