<svg width="15" height="16" viewBox="0 0 15 16" fill="none" xmlns="http://www.w3.org/2000/svg">
<g clip-path="url(#clip0_56_273)">
<g clip-path="url(#clip1_56_273)">
<path d="M7.71875 8C8.77962 8 9.79703 7.57857 10.5472 6.82843C11.2973 6.07828 11.7188 5.06087 11.7188 4C11.7188 2.93913 11.2973 1.92172 10.5472 1.17157C9.79703 0.421427 8.77962 0 7.71875 0C6.65788 0 5.64047 0.421427 4.89032 1.17157C4.14018 1.92172 3.71875 2.93913 3.71875 4C3.71875 5.06087 4.14018 6.07828 4.89032 6.82843C5.64047 7.57857 6.65788 8 7.71875 8ZM6.29063 9.5C3.2125 9.5 0.71875 11.9937 0.71875 15.0719C0.71875 15.5844 1.13438 16 1.64688 16H13.7906C14.3031 16 14.7188 15.5844 14.7188 15.0719C14.7188 11.9937 12.225 9.5 9.14688 9.5H6.29063Z" fill="#3B82F6"/>
</g>
</g>
<defs>
<clipPath id="clip0_56_273">
<rect width="14" height="16" fill="white" transform="translate(0.71875)"/>
</clipPath>
<clipPath id="clip1_56_273">
<rect width="14" height="16" fill="white" transform="translate(0.71875)"/>
</clipPath>
</defs>
</svg>
