<svg width="26" height="20" viewBox="0 0 26 20" fill="none" xmlns="http://www.w3.org/2000/svg">
<g clip-path="url(#clip0_85_33)">
<g clip-path="url(#clip1_85_33)">
<path d="M15.3125 1.25H20.3125C21.0039 1.25 21.5625 1.80859 21.5625 2.5C21.5625 3.19141 21.0039 3.75 20.3125 3.75H15.875C15.6719 4.75781 14.9805 5.58984 14.0625 5.98828V17.5H20.3125C21.0039 17.5 21.5625 18.0586 21.5625 18.75C21.5625 19.4414 21.0039 20 20.3125 20H12.8125H5.31253C4.62112 20 4.06253 19.4414 4.06253 18.75C4.06253 18.0586 4.62112 17.5 5.31253 17.5H11.5625V5.98828C10.6446 5.58594 9.95315 4.75391 9.75003 3.75H5.31253C4.62112 3.75 4.06253 3.19141 4.06253 2.5C4.06253 1.80859 4.62112 1.25 5.31253 1.25H10.3125C10.8828 0.492188 11.7891 0 12.8125 0C13.836 0 14.7422 0.492188 15.3125 1.25ZM17.4844 12.5H23.1407L20.3125 7.64844L17.4844 12.5ZM20.3125 16.25C17.8555 16.25 15.8125 14.9219 15.3907 13.168C15.2891 12.7383 15.4297 12.2969 15.6524 11.9141L19.3711 5.53906C19.5664 5.20312 19.9258 5 20.3125 5C20.6992 5 21.0586 5.20703 21.2539 5.53906L24.9727 11.9141C25.1953 12.2969 25.336 12.7383 25.2344 13.168C24.8125 14.9219 22.7696 16.25 20.3125 16.25ZM5.26565 7.64844L2.43753 12.5H8.09769L5.26565 7.64844ZM0.347685 13.168C0.246123 12.7383 0.386748 12.2969 0.609404 11.9141L4.32815 5.53906C4.52347 5.20312 4.88284 5 5.26956 5C5.65628 5 6.01565 5.20703 6.21097 5.53906L9.92972 11.9141C10.1524 12.2969 10.293 12.7383 10.1914 13.168C9.76565 14.9219 7.72269 16.25 5.26565 16.25C2.80862 16.25 0.76956 14.9219 0.347685 13.168Z" fill="currentColor"/>
</g>
</g>
<defs>
<clipPath id="clip0_85_33">
<rect width="25" height="20" fill="white" transform="translate(0.3125)"/>
</clipPath>
<clipPath id="clip1_85_33">
<rect width="25" height="20" fill="white" transform="translate(0.3125)"/>
</clipPath>
</defs>
</svg>
