<svg width="28" height="25" viewBox="0 0 28 25" fill="none" xmlns="http://www.w3.org/2000/svg">
<g clip-path="url(#clip0_2_917)">
<path d="M27.1469 12.6328C27.1469 13.4766 26.4437 14.1375 25.6469 14.1375H24.1469L24.1797 21.6469C24.1797 21.7734 24.1703 21.9 24.1562 22.0266V22.7812C24.1562 23.8172 23.3172 24.6562 22.2812 24.6562H21.5312C21.4797 24.6562 21.4281 24.6562 21.3766 24.6516C21.3109 24.6562 21.2453 24.6562 21.1797 24.6562H19.6562H18.5312C17.4953 24.6562 16.6562 23.8172 16.6562 22.7812V21.6562V18.6562C16.6562 17.8266 15.9859 17.1562 15.1562 17.1562H12.1562C11.3266 17.1562 10.6562 17.8266 10.6562 18.6562V21.6562V22.7812C10.6562 23.8172 9.81719 24.6562 8.78125 24.6562H7.65625H6.16094C6.09063 24.6562 6.02031 24.6516 5.95 24.6469C5.89375 24.6516 5.8375 24.6562 5.78125 24.6562H5.03125C3.99531 24.6562 3.15625 23.8172 3.15625 22.7812V17.5312C3.15625 17.4891 3.15625 17.4422 3.16094 17.4V14.1375H1.65625C0.8125 14.1375 0.15625 13.4812 0.15625 12.6328C0.15625 12.2109 0.296875 11.8359 0.625 11.5078L12.6437 1.03125C12.9719 0.703125 13.3469 0.65625 13.675 0.65625C14.0031 0.65625 14.3781 0.75 14.6594 0.984375L26.6312 11.5078C27.0062 11.8359 27.1937 12.2109 27.1469 12.6328Z" fill="#2563EB"/>
</g>
<defs>
<clipPath id="clip0_2_917">
<path d="M0.15625 0.65625H27.1562V24.6562H0.15625V0.65625Z" fill="white"/>
</clipPath>
</defs>
</svg>
