<svg width="21" height="20" viewBox="0 0 21 20" fill="none" xmlns="http://www.w3.org/2000/svg">
<g clip-path="url(#clip0_69_611)">
<path d="M11.8633 3.98831C12.9082 2.94342 14.396 2.46456 15.8584 2.70804V2.70901C18.0678 3.07778 19.6875 4.98882 19.6875 7.2305V7.45706C19.6875 8.71761 19.1976 9.92579 18.3262 10.8262L18.1465 11.002L18.1455 11.003L11.0869 17.5928C10.9796 17.693 10.8372 17.75 10.6875 17.75C10.5751 17.75 10.4665 17.7185 10.374 17.6602L10.2881 17.5928L3.22949 11.003L3.22852 11.002L3.04883 10.8262C2.17743 9.92579 1.68751 8.71761 1.6875 7.45706V7.2305C1.6875 4.98882 3.30724 3.07778 5.5166 2.70901L5.51562 2.70804C6.97831 2.46426 8.46664 2.94323 9.51172 3.98831L10.6875 5.16409L11.8633 3.98831Z" stroke="#6B7280" stroke-width="2"/>
</g>
<defs>
<clipPath id="clip0_69_611">
<path d="M0.6875 0H20.6875V20H0.6875V0Z" fill="white"/>
</clipPath>
</defs>
</svg>
