<svg width="20" height="20" viewBox="0 0 20 20" fill="none" xmlns="http://www.w3.org/2000/svg">
<mask id="mask0_75_1058" style="mask-type:luminance" maskUnits="userSpaceOnUse" x="0" y="0" width="20" height="20">
<path d="M20 0H0V20H20V0Z" fill="white"/>
</mask>
<g mask="url(#mask0_75_1058)">
<mask id="mask1_75_1058" style="mask-type:luminance" maskUnits="userSpaceOnUse" x="0" y="0" width="20" height="20">
<path d="M0 0H20V20H0V0Z" fill="white"/>
</mask>
<g mask="url(#mask1_75_1058)">
<path d="M1.85937 11.7344L8.91797 18.3242C9.21094 18.5977 9.5977 18.75 10 18.75C10.4023 18.75 10.7891 18.5977 11.082 18.3242L18.1406 11.7344C19.3281 10.6289 20 9.07809 20 7.457V7.23043C20 4.49997 18.0273 2.17184 15.3359 1.72262C13.5547 1.42575 11.7422 2.00778 10.4687 3.28122L10 3.74997L9.5313 3.28122C8.25781 2.00778 6.44531 1.42575 4.66406 1.72262C1.97266 2.17184 0 4.49997 0 7.23043V7.457C0 9.07809 0.67187 10.6289 1.85937 11.7344Z" fill="#EF4444"/>
</g>
</g>
</svg>
