<svg width="367" height="440" viewBox="0 0 367 440" fill="none" xmlns="http://www.w3.org/2000/svg">
<path d="M146.583 439.75V334.758C134.375 339.642 122.167 342.083 109.958 342.083C48.9166 342.083 0.083252 293.25 0.083252 232.208C0.083252 200.467 12.2916 173.608 34.2666 154.075C26.9416 139.425 24.4999 124.775 24.4999 110.125C24.4999 49.0833 73.3332 0.25 134.375 0.25C173.442 0.25 205.183 19.7833 227.158 49.0833C229.6 49.0833 232.042 49.0833 232.042 49.0833C305.292 49.0833 366.333 110.125 366.333 183.375C366.333 256.625 305.292 317.667 232.042 317.667C219.833 317.667 207.625 315.225 195.417 312.783V439.75H146.583Z" fill="currentColor"/>
</svg>
