<svg width="21" height="19" viewBox="0 0 21 19" fill="none" xmlns="http://www.w3.org/2000/svg">
<g clip-path="url(#clip0_56_190)">
<g clip-path="url(#clip1_56_190)">
<path d="M11.1411 0.882812C10.9548 0.496094 10.561 0.25 10.1286 0.25C9.69617 0.25 9.30594 0.496094 9.1161 0.882812L6.85555 5.53398L1.80711 6.2793C1.38524 6.34258 1.03367 6.63789 0.903596 7.04219C0.773518 7.44648 0.878986 7.89297 1.18133 8.1918L4.84461 11.8164L3.97977 16.9387C3.90946 17.3605 4.08524 17.7895 4.43328 18.0391C4.78133 18.2887 5.24188 18.3203 5.62156 18.1199L10.1321 15.7117L14.6427 18.1199C15.0223 18.3203 15.4829 18.2922 15.8309 18.0391C16.179 17.7859 16.3548 17.3605 16.2845 16.9387L15.4161 11.8164L19.0794 8.1918C19.3817 7.89297 19.4907 7.44648 19.3571 7.04219C19.2235 6.63789 18.8755 6.34258 18.4536 6.2793L13.4016 5.53398L11.1411 0.882812Z" fill="#FBBF24"/>
</g>
</g>
<defs>
<clipPath id="clip0_56_190">
<rect width="20.25" height="18" fill="white" transform="translate(0 0.25)"/>
</clipPath>
<clipPath id="clip1_56_190">
<path d="M0 0.25H20.25V18.25H0V0.25Z" fill="white"/>
</clipPath>
</defs>
</svg>
