<svg width="430" height="524" viewBox="0 0 430 524" fill="none" xmlns="http://www.w3.org/2000/svg">
<path d="M429.688 240.085C429.688 212.54 418.687 187.594 400.886 169.298C401.53 164.5 401.986 159.64 401.986 154.662C401.986 99.2417 360.409 53.622 306.755 47.0577C279.792 18.1701 241.48 0 198.836 0C117.237 0 51.0996 66.1386 51.0996 147.744C51.0996 148.176 51.163 148.585 51.163 149.009C20.4855 169.755 0.3125 204.869 0.3125 244.695C0.3125 299.291 38.2616 344.927 89.1899 356.932C99.5153 382.201 124.312 400.025 153.294 400.025C164.098 400.025 174.283 397.481 183.39 393.068V524H262.735V438.044L293.68 385.176C325.355 382.867 352.115 362.9 364.034 334.994C402.378 320.467 429.688 283.515 429.688 240.085ZM219.723 350.25C220.399 351.2 221.098 352.119 221.812 353.038L218.302 354.467C218.812 353.07 219.307 351.679 219.723 350.25ZM244.551 414.904V373.374C251.9 377.842 259.98 381.195 268.593 383.221L244.551 414.904Z" fill="currentColor"/>
</svg>
