<svg width="430" height="524" viewBox="0 0 430 524" fill="none" xmlns="http://www.w3.org/2000/svg">
<path d="M429.375 240.085C429.375 212.54 418.374 187.594 400.573 169.298C401.217 164.5 401.674 159.64 401.674 154.662C401.674 99.2417 360.096 53.622 306.443 47.0577C279.479 18.1701 241.168 0 198.523 0C116.925 0 50.7871 66.1386 50.7871 147.744C50.7871 148.176 50.8505 148.585 50.8505 149.009C20.173 169.755 0 204.869 0 244.695C0 299.291 37.9491 344.927 88.8774 356.932C99.2028 382.201 124 400.025 152.981 400.025C163.786 400.025 173.97 397.481 183.078 393.068V524H262.423V438.044L293.367 385.176C325.043 382.867 351.803 362.9 363.721 334.994C402.066 320.467 429.375 283.515 429.375 240.085ZM219.411 350.25C220.086 351.2 220.785 352.119 221.5 353.038L217.989 354.467C218.5 353.07 218.994 351.679 219.411 350.25ZM244.238 414.904V373.374C251.588 377.842 259.668 381.195 268.281 383.221L244.238 414.904Z" fill="#2ECC71"/>
</svg>
