<svg width="15" height="16" viewBox="0 0 15 16" fill="none" xmlns="http://www.w3.org/2000/svg">
<g clip-path="url(#clip0_56_158)">
<g clip-path="url(#clip1_56_158)">
<path d="M10.4844 4C10.4844 3.33696 10.221 2.70107 9.75214 2.23223C9.2833 1.76339 8.64742 1.5 7.98438 1.5C7.32133 1.5 6.68545 1.76339 6.21661 2.23223C5.74777 2.70107 5.48438 3.33696 5.48438 4C5.48438 4.66304 5.74777 5.29893 6.21661 5.76777C6.68545 6.23661 7.32133 6.5 7.98438 6.5C8.64742 6.5 9.2833 6.23661 9.75214 5.76777C10.221 5.29893 10.4844 4.66304 10.4844 4ZM3.98438 4C3.98438 2.93913 4.4058 1.92172 5.15595 1.17157C5.90609 0.421427 6.92351 0 7.98438 0C9.04524 0 10.0627 0.421427 10.8128 1.17157C11.5629 1.92172 11.9844 2.93913 11.9844 4C11.9844 5.06087 11.5629 6.07828 10.8128 6.82843C10.0627 7.57857 9.04524 8 7.98438 8C6.92351 8 5.90609 7.57857 5.15595 6.82843C4.4058 6.07828 3.98438 5.06087 3.98438 4ZM2.525 14.5H13.4438C13.1656 12.5219 11.4656 11 9.4125 11H6.55625C4.50313 11 2.80312 12.5219 2.525 14.5ZM0.984375 15.0719C0.984375 11.9937 3.47813 9.5 6.55625 9.5H9.4125C12.4906 9.5 14.9844 11.9937 14.9844 15.0719C14.9844 15.5844 14.5687 16 14.0562 16H1.9125C1.4 16 0.984375 15.5844 0.984375 15.0719Z" fill="#6B7280"/>
</g>
</g>
<defs>
<clipPath id="clip0_56_158">
<rect width="14" height="16" fill="white" transform="translate(0.984375)"/>
</clipPath>
<clipPath id="clip1_56_158">
<rect width="14" height="16" fill="white" transform="translate(0.984375)"/>
</clipPath>
</defs>
</svg>
