<svg width="19" height="20" viewBox="0 0 19 20" fill="none" xmlns="http://www.w3.org/2000/svg">
<g clip-path="url(#clip0_2_599)">
<path d="M12.3906 5C12.3906 4.1712 12.0614 3.37634 11.4753 2.79029C10.8893 2.20424 10.0944 1.875 9.26562 1.875C8.43682 1.875 7.64197 2.20424 7.05592 2.79029C6.46987 3.37634 6.14062 4.1712 6.14062 5C6.14062 5.8288 6.46987 6.62366 7.05592 7.20971C7.64197 7.79576 8.43682 8.125 9.26562 8.125C10.0944 8.125 10.8893 7.79576 11.4753 7.20971C12.0614 6.62366 12.3906 5.8288 12.3906 5ZM4.26562 5C4.26562 3.67392 4.79241 2.40215 5.73009 1.46447C6.66777 0.526784 7.93954 0 9.26562 0C10.5917 0 11.8635 0.526784 12.8012 1.46447C13.7388 2.40215 14.2656 3.67392 14.2656 5C14.2656 6.32608 13.7388 7.59785 12.8012 8.53553C11.8635 9.47322 10.5917 10 9.26562 10C7.93954 10 6.66777 9.47322 5.73009 8.53553C4.79241 7.59785 4.26562 6.32608 4.26562 5ZM2.44141 18.125H16.0898C15.7422 15.6523 13.6172 13.75 11.0508 13.75H7.48047C4.91406 13.75 2.78906 15.6523 2.44141 18.125ZM0.515625 18.8398C0.515625 14.9922 3.63281 11.875 7.48047 11.875H11.0508C14.8984 11.875 18.0156 14.9922 18.0156 18.8398C18.0156 19.4805 17.4961 20 16.8555 20H1.67578C1.03516 20 0.515625 19.4805 0.515625 18.8398Z" fill="#6B7280"/>
</g>
<defs>
<clipPath id="clip0_2_599">
<rect width="17.5" height="20" fill="white" transform="translate(0.515625)"/>
</clipPath>
</defs>
</svg>
