<svg width="65" height="65" viewBox="0 0 668 668" fill="none" xmlns="http://www.w3.org/2000/svg">
<path d="M665.483 416.397L666.203 418.453L666.973 421.817L667.27 425.103V642.333C667.27 654.99 657.863 665.45 645.663 667.107L642.27 667.333H25.6665C13.0098 667.333 2.55017 657.927 0.894837 645.727L0.666504 642.333V425.687L0.727841 423.923L1.09017 421.073C1.42817 419.28 1.94683 417.573 2.63117 415.957L94.6078 215.334C98.1722 207.56 105.415 202.227 113.718 201.016L117.333 200.753L201.994 200.728L175.696 246.402L173.427 250.728L133.366 250.733L64.5998 400.66H603L535.427 255.794L564.173 205.884C566.393 207.58 568.337 209.652 569.903 212.037L571.656 215.184L665.483 416.397ZM379.506 2.52169L382.553 4.02069L555.49 104.125C566.43 110.457 570.776 123.84 566.12 135.243L564.623 138.297L471.066 300.7L509 300.72C522.806 300.72 534 311.913 534 325.72C534 338.377 524.593 348.837 512.393 350.493L509 350.72L442.266 350.7L442.236 350.8H306.303L306.2 350.7L159 350.72C145.193 350.72 134 339.527 134 325.72C134 313.063 143.405 302.603 155.608 300.95L159 300.72L219.766 300.7L213.715 297.21C202.775 290.877 198.428 277.493 203.087 266.091L204.582 263.037L348.47 13.1787C354.783 2.21102 368.133 -2.14765 379.506 2.52169ZM379.196 59.843L260.26 266.373L319.533 300.7H413.433L508.933 134.939L379.196 59.843Z" fill="currentColor"/>
</svg>
