<svg width="28" height="25" viewBox="0 0 28 25" fill="none" xmlns="http://www.w3.org/2000/svg">
<g clip-path="url(#clip0_2_931)">
<path d="M7.76562 4.2625C7.76562 2.27969 9.37344 0.671875 11.3563 0.671875C12.3078 0.671875 13.2219 1.05156 13.8922 1.72187L14.3281 2.15781L14.7641 1.72187C15.4344 1.05156 16.3484 0.671875 17.3 0.671875C19.2828 0.671875 20.8906 2.27969 20.8906 4.2625C20.8906 5.21406 20.5109 6.12812 19.8406 6.79844L14.9891 11.6453C14.6234 12.0109 14.0281 12.0109 13.6625 11.6453L8.81562 6.79844C8.14531 6.12812 7.76562 5.21406 7.76562 4.2625ZM27.4625 16.4359C28.0766 17.2703 27.8984 18.4422 27.0641 19.0563L21.1297 23.4297C20.0328 24.2359 18.7109 24.6719 17.3469 24.6719H9.82812H2.32812C1.49844 24.6719 0.828125 24.0016 0.828125 23.1719V20.1719C0.828125 19.3422 1.49844 18.6719 2.32812 18.6719H4.05313L6.15781 16.9844C7.22187 16.1313 8.54375 15.6719 9.90781 15.6719H13.5781H14.3281H17.3281C18.1578 15.6719 18.8281 16.3422 18.8281 17.1719C18.8281 18.0016 18.1578 18.6719 17.3281 18.6719H14.3281H13.5781C13.1656 18.6719 12.8281 19.0094 12.8281 19.4219C12.8281 19.8344 13.1656 20.1719 13.5781 20.1719H19.2313L24.8422 16.0375C25.6766 15.4234 26.8484 15.6016 27.4625 16.4359ZM9.90313 18.6719H9.86094C9.875 18.6719 9.88906 18.6719 9.90313 18.6719Z" fill="currentColor"/>
</g>
<defs>
<clipPath id="clip0_2_931">
<rect width="27" height="24" fill="white" transform="translate(0.828125 0.671875)"/>
</clipPath>
</defs>
</svg>
